<?xml version="1.0" encoding="utf-8"?>
<!-- Generator: Adobe Illustrator 27.0.0, SVG Export Plug-In . SVG Version: 6.00 Build 0)  -->
<svg version="1.1" id="Layer_1" xmlns="http://www.w3.org/2000/svg" xmlns:xlink="http://www.w3.org/1999/xlink" x="0px" y="0px"
	 viewBox="0 0 2000 400" style="enable-background:new 0 0 2000 400;" xml:space="preserve">
<style type="text/css">
	.st0{fill:#D21437;}
	.st1{fill:#FFFFFF;}
	.st2{fill:#273A92;}
	.st3{fill:#343741;}
</style>
<g>
	<path class="st0" d="M1686.8257,257.507v-0.2267c0-7.5157-5.2388-11.3846-13.7772-11.3846h-16.827v22.8803h17.1694
		C1681.9293,268.7761,1686.8257,264.2268,1686.8257,257.507"/>
	<path class="st0" d="M1856.7288,286.2412c0,15.8366-12.0789,24.7267-29.2853,24.7267c-12.0742,0-24.2687-4.2159-33.8438-12.7637
		l10.3757-12.4212c7.1779,5.9283,14.6981,9.6908,23.8151,9.6908c7.1779,0,11.5049-2.8508,11.5049-7.525v-0.2267
		c0-4.4474-2.735-6.7243-16.068-10.1444c-16.068-4.1003-26.4298-8.5431-26.4298-24.3843v-0.2268
		c0-14.4715,11.6206-24.0466,27.9108-24.0466c11.6252,0,21.5382,3.6514,29.6323,10.1491l-9.1216,13.2125
		c-7.0621-4.8962-14.0132-7.8581-20.7374-7.8581c-6.7244,0-10.2555,3.0776-10.2555,6.9511v0.2267
		c0,5.2435,3.42,6.9512,17.2065,10.4822c16.1791,4.2161,25.296,10.0286,25.296,23.9308V286.2412z M1790.9016,309.825h-17.4332
		v-52.0731l-22.4498,34.0659h-0.4536l-22.223-33.728v51.7352h-17.2064v-79.7617h18.9187l20.9644,33.7235l20.969-33.7235h18.9141
		V309.825z M1790.7026,335.1534h-79.7662v-15.1935h79.7662V335.1534z M1656.2209,52.3015v177.7664h18.3079
		c10.1351,0,17.9886,2.8461,23.2274,8.085c4.4381,4.4381,6.8307,10.6996,6.8307,18.2152v0.2268
		c0,12.8655-6.9464,20.9505-17.0814,24.7082l19.4695,28.4616h-20.4923l-17.0769-25.5044h-13.1848v71.8202H1960V52.3015H1656.2209z"
		/>
	<path class="st1" d="M1704.5847,256.5981v-0.2313c0-7.5157-2.3927-13.7772-6.8308-18.2154
		c-5.2341-5.2342-13.0923-8.085-23.2273-8.085h-18.3079v15.8274h16.8315c8.5385,0,13.7772,3.8736,13.7772,11.3846v0.2268
		c0,6.7197-4.8962,11.2736-13.4347,11.2736h-17.1741v15.4848h13.1848l17.0769,25.4997h20.4969l-19.4696-28.4615
		C1697.6383,277.5439,1704.5847,269.4636,1704.5847,256.5981 M1856.7311,286.013c0-13.9022-9.1169-19.7148-25.3007-23.9309
		c-13.7865-3.5311-17.2019-5.2387-17.2019-10.4821v-0.2268c0-3.8736,3.5311-6.951,10.2555-6.951
		c6.7196,0,13.6754,2.9618,20.7375,7.8581l9.1169-13.2127c-8.0942-6.4975-18.0071-10.1489-29.6323-10.1489
		c-16.2902,0-27.9109,9.5751-27.9109,24.0511v0.2268c0,15.8366,10.3666,20.284,26.4346,24.3842
		c13.3329,3.4154,16.0634,5.697,16.0634,10.1444v0.2268c0,4.6694-4.327,7.5203-11.5004,7.5203
		c-9.1215,0-16.6372-3.7625-23.8196-9.6862l-10.3712,12.4212c9.5706,8.5431,21.765,12.7639,33.8438,12.7639
		c17.2065,0,29.2853-8.8949,29.2853-24.7269V286.013z M1790.9041,230.0619h-18.9188l-20.969,33.7234l-20.9642-33.7234h-18.9142
		v79.7662h17.2019v-51.7397l22.223,33.728h0.4535l22.45-34.0658v52.0775h17.4379V230.0619z M1790.7051,335.1518h-79.7662v-15.1933
		h79.7662V335.1518z"/>
</g>
<g>
	<path class="st2" d="M369.6104,326.3614c-18.9293-1.9686-18.5573-12.5233-19.7607-32.601
		c-3.2693-58.197-3.6751-132.8108-4.4656-175.6085c-0.4059-28.2241,2.8268-35.4771,28.203-38.3941l8.5536-0.7708
		c2.0504-1.6375,2.0504-8.4775-0.3579-10.0742c-12.6191,0.7991-25.8652,1.1429-35.9731,1.1429c-8.0844,0-16.5055,0-30.2956-1.1429
		c-0.8187,18.5644-12.0681,40.7897-30.6394,77.4491l-37.9601,77.0643c-10.053,20.6287-20.175,41.6689-31.0664,60.5503h-0.7919
		c-9.757-17.7668-18.584-36.3169-27.8592-55.2251l-46.0247-93.2598c-12.4542-25.7891-22.61-50.8623-20.9796-66.5788
		c-13.3278,1.1429-24.1996,1.1429-33.5155,1.1429c-10.0669,0-19.7338-0.3438-31.8584-1.1429
		c-3.2608,1.5967-3.6596,7.6518-1.5952,10.0742l6.4046,0.7708c24.6196,4.0725,27.9437,9.2892,27.0489,34.7331
		c-0.799,22.1563-2.4293,56.4638-4.4585,89.9722c-2.3605,40.0047-4.3558,62.1596-6.805,88.8576
		c-2.4364,28.1959-8.1055,31.0721-25.0324,33.0406l-8.8763,1.1964c-2.5041,2.0502-1.6515,8.1605,0.854,10.0882
		c13.7338-0.7581,28.203-1.1429,41.0912-1.1429c15.3303,0,31.1002,0.3847,44.82,1.1429c2.8281-1.1429,3.2552-7.6377,0.448-10.0882
		l-15.3655-1.1964c-15.784-1.1696-18.1373-7.6377-18.1373-37.5133c0-34.2666,1.5825-70.2792,2.8014-94.8438
		c1.2584-23.4216,2.4562-46.8574,4.0034-71.8757h0.8328c8.8552,18.5911,17.3398,39.5917,25.8652,58.1139l36.2338,77.945
		c9.3019,19.7606,28.6511,59.3666,35.6067,80.683c0.7638,1.2654,2.8141,1.6375,3.592,1.6375c1.6445,0,3.227-0.372,3.9768-1.6375
		c7.3148-18.5502,25.5212-56.4215,43.6163-92.0086l35.9182-70.637c8.0914-15.6742,23.3667-47.9863,26.2287-52.4166h0.8047
		l1.2245,168.2737c0,25.8427,0,32.3108-19.7537,34.2794l-11.6284,1.1964c-2.4773,2.4505-2.0715,8.1605,0.7849,10.0882
		c16.4647-0.7581,34.6641-1.1429,48.7417-1.1429c14.5537,0,31.1353,0.3847,47.7184,1.1429
		c2.7662-1.5825,3.172-7.6377,0.7976-10.0882L369.6104,326.3614z"/>
	<path class="st2" d="M487.6828,155.6793c-58.5127,0-99.625,41.2011-99.625,94.8296c0,50.875,37.1004,91.5956,99.625,91.5956
		c56.8555,0,98.0848-39.5369,98.0848-93.9771C585.7676,198.78,552.6508,155.6793,487.6828,155.6793z M496.6211,329.9533
		c-46.5898,4.0034-69.3294-39.0551-72.8734-80.5182c-4.8503-56.6963,25.162-79.1146,54.1302-81.6046
		c44.2984-3.771,68.5797,37.8853,72.2478,80.8888C554.804,303.8472,527.1506,327.311,496.6211,329.9533z"/>
	<path class="st2" d="M1260.4594,108.657c0-20.9585-14.4496-38.7111-31.1016-38.7111c-15.646,0-19.3337,10.4729-19.3337,16.6238
		c0,7.5405,5.3252,10.8436,10.8575,11.2706c7.7336,0.4536,20.1736,7.2389,20.1736,22.6227c0,16.4872-15.66,27.8127-30.6322,34.6386
		c-1.9814,2.8071-0.3989,6.9218,2.8351,8.4761C1238.6328,155.9682,1260.4594,136.5091,1260.4594,108.657z"/>
	<path class="st2" d="M1329.1688,239.5823l-24.9761-12.922c-16.142-8.4634-26.8896-17.3666-26.8896-31.747
		c0-13.7478,8.7932-27.5787,32.5729-27.5787c23.8206,0,34.2793,20.6287,37.6373,34.7345c1.8995,2.793,9.151,2.3942,10.5137-0.7708
		c0.248-17.3398-2.5588-32.7391-5.793-39.5779c-13.6661-2.3533-23.3809-6.041-37.5697-6.041
		c-40.6094,0-63.3983,20.5456-63.3983,50.0366c0,22.6086,16.6521,38.3391,36.0281,48.3709l18.1091,9.3442
		c23.0638,11.696,28.2933,25.031,28.2933,37.953c0,18.5234-13.2927,29.0781-33.8806,29.0781
		c-27.0546,0-44.7506-28.6511-48.0398-43.2247c-2.8494-3.6737-8.8763-3.2608-10.4729,0.8807
		c0,21.3305,4.8024,35.8759,8.4777,41.4899c5.6281,3.9782,21.8391,12.4966,46.3615,12.4966
		c39.9764,0,65.8064-19.7621,65.8064-51.2063C1361.9487,263.8439,1343.7423,246.8619,1329.1688,239.5823z"/>
	<path class="st2" d="M960.6613,169.041c-18.9504-6.5089-38.7661-8.8763-61.3493-8.8763c-32.6207,0-55.2715,0.7849-77.8957,2.3674
		c-3.592,1.1978-4.0387,8.8904-0.427,10.115l12.0906,1.5966c9.3371,1.1823,9.7077,8.0632,9.7077,34.292v85.6236
		c0,27.7845-1.6036,29.367-18.9561,32.2022l-7.6996,1.1964c-2.7662,2.0502-2.3674,8.9453,0.7849,10.0882
		c15.8123-0.7581,28.3622-1.1429,41.2631-1.1429c6.0821,0,13.7339,0.3847,21.6956,0.7848
		c8.5309,0.8526,17.9033,1.2247,26.7585,1.2247c20.1327,0,42.7075-3.1382,60.9069-12.5641
		c32.3403-16.4999,48.8262-45.9627,48.8262-77.821C1016.3671,210.9721,997.3687,181.5093,960.6613,169.041z M908.2856,326.7743
		c-30.8184,0-34.7612-12.9361-34.7612-38.6562v-96.1232c0-8.944,0-14.0916,2.3181-15.7699
		c3.296-2.7253,10.9745-4.3628,24.3447-4.3628c45.5215,0,80.2081,25.83,80.2081,75.4395
		C980.3953,296.4716,956.6283,326.7743,908.2856,326.7743z"/>
	<path class="st2" d="M1189.6982,160.1647c-11.4353,0.7849-19.8988,1.1428-28.8301,1.1428c-9.2061,0-18.4543-0.3579-30.5365-1.1428
		c-4.0809,1.5556-4.4797,8.0365-0.8807,10.0191l8.5043,1.2386c9.7711,1.2246,8.8904,4.8024,2.8352,16.1137l-16.1349,29.532
		c-6.8119,12.8403-12.915,22.5142-19.3901,33.4408c-6.0214-10.5011-12.1104-21.4136-18.0964-33.4408l-14.9794-28.692
		c-6.5299-12.5924-5.1942-14.8765,3.6201-16.9536l5.6831-1.2386c3.9978-1.9827,2.8339-8.4635-0.441-10.0191
		c-12.8938,0.7849-22.142,1.1428-34.2864,1.1428c-14.5115,0-23.8486-0.3579-37.1553-1.1428
		c-3.165,1.1428-3.964,7.6236-1.2175,10.0191l10.5208,1.9954c10.4447,2.0644,14.5651,5.724,22.9878,21.825l29.443,54.4953
		c10.1487,18.5361,11.2902,21.7702,11.2902,34.3484v15.2204c0,23.8755-1.5825,26.3246-18.9349,28.2932l-10.0458,1.1964
		c-2.8973,2.0502-2.5043,8.9453,0.7904,10.0882c18.1655-0.7581,30.7085-1.1429,43.6447-1.1429
		c12.3992,0,25.7609,0.3847,43.4727,1.1429c3.2749-1.1429,3.6879-8.038,0.8525-10.0882l-10.1007-1.1964
		c-17.3328-1.9686-19.0253-4.4177-19.0253-28.2932v-21.7716c0-11.6552,0.8737-15.6741,15.4204-38.6688l24.9901-40.4303
		c12.5232-20.1059,14.5186-22.5552,27.0828-25.0183l9.6458-1.9954C1193.7158,168.2011,1192.8351,161.3075,1189.6982,160.1647z"/>
	<path class="st2" d="M704.4177,155.6793c-58.4859,0-99.6249,41.2011-99.6249,94.8296c0,50.875,37.0933,91.5956,99.6249,91.5956
		c56.8611,0,98.0764-39.5369,98.0764-93.9771C802.4941,198.78,769.4266,155.6793,704.4177,155.6793z M713.3617,329.9533
		c-46.5813,4.0034-69.3435-39.0551-72.8721-80.5182c-4.8588-56.6963,25.1691-79.1146,54.1373-81.6046
		c44.29-3.771,68.5374,37.8853,72.2125,80.8888C771.546,303.8472,743.9054,327.311,713.3617,329.9533z"/>
</g>
<rect x="1495.0413" y="21.76" class="st3" width="2.8887" height="356.4799"/>
</svg>
