<?xml version="1.0" encoding="UTF-8"?>
<svg width="476px" height="72px" viewBox="0 0 476 72" version="1.1" xmlns="http://www.w3.org/2000/svg" xmlns:xlink="http://www.w3.org/1999/xlink">
    <title>UIQ-SVG</title>
    <g id="UIQ-SVG" stroke="none" stroke-width="1" fill="none" fill-rule="evenodd">
        <g id="logo-UIQ.01f8782" fill-rule="nonzero">
            <g id="Group" transform="translate(384.000000, 0.000000)">
                <rect id="Rectangle" fill="#B41F27" x="0.18" y="0.35" width="74.96" height="71.24"></rect>
                <g transform="translate(10.000000, 16.000000)" fill="#FFFFFF">
                    <polygon id="Path" points="0.5 1.36 8.9 1.36 8.9 39.55 0.5 39.55"></polygon>
                    <path d="M51.41,40.69 L47.21,36.93 C43.99,39 40.12,40.2 35.86,40.2 C24.08,40.2 15.62,31.42 15.62,20.56 L15.62,20.45 C15.62,9.59 24.19,0.7 35.97,0.7 C47.75,0.7 56.21,9.48 56.21,20.34 L56.21,20.45 C56.21,24.49 54.96,28.25 52.83,31.42 L56.76,34.75 L51.41,40.69 Z M40.99,31.42 L34.77,26.13 L40.12,20.13 L46.39,25.8 C47.05,24.27 47.43,22.47 47.43,20.56 L47.43,20.45 C47.43,13.9 42.63,8.45 35.86,8.45 C29.09,8.45 24.4,13.8 24.4,20.34 L24.4,20.45 C24.4,27 29.2,32.4502205 35.97,32.4502205 C37.83,32.46 39.52,32.13 40.99,31.42 Z" id="Shape"></path>
                </g>
            </g>
            <g id="Group" transform="translate(462.000000, 0.000000)" fill="#000000">
                <polygon id="Path" points="2.53 1.46 0.38 1.46 0.38 0.36 5.88 0.36 5.88 1.46 3.73 1.46 3.73 7.13 2.53 7.13 2.53 1.46"></polygon>
                <polygon id="Path" points="6.9 0.35 8.17 0.35 10.23 3.55 12.29 0.35 13.56 0.35 13.56 7.12 12.37 7.12 12.37 2.26 10.23 5.45 10.19 5.45 8.07 2.28 8.07 7.12 6.9 7.12 6.9 0.35"></polygon>
            </g>
            <g id="Group" transform="translate(0.000000, 9.000000)" fill="#FFFFFF">
                <path d="M0.26,31.25 L0.26,2.75 L5.79,2.75 L5.79,30.9 C5.79,41.47 11.46,47.42 20.77,47.42 C29.8,47.42 35.54,41.96 35.54,31.25 L35.54,2.75 L41.07,2.75 L41.07,30.82 C41.07,45.1 32.88,52.5200101 20.63,52.5200101 C8.52,52.53 0.26,45.11 0.26,31.25 Z" id="Path"></path>
                <path d="M52.55,15.56 L57.94,15.56 L57.94,21.86 C60.32,17.94 64.1,14.79 70.33,14.79 C79.08,14.79 84.19,20.67 84.19,29.28 L84.19,51.75 L78.8,51.75 L78.8,30.62 C78.8,23.9 75.16,19.7 68.79,19.7 C62.56,19.7 57.94,24.25 57.94,31.04 L57.94,51.76 L52.55,51.76 L52.55,15.56 Z" id="Path"></path>
                <path d="M92.87,33.77 L92.87,33.63 C92.87,21.8 101.48,14.8 110.16,14.8 C116.88,14.8 121.22,18.44 124.02,22.5 L124.02,0.65 L129.41,0.65 L129.41,51.76 L124.02,51.76 L124.02,44.48 C121.08,48.82 116.81,52.53 110.16,52.53 C101.48,52.53 92.87,45.67 92.87,33.77 Z M124.23,33.7 L124.23,33.56 C124.23,25.23 117.86,19.63 111.14,19.63 C104.14,19.63 98.4,24.81 98.4,33.56 L98.4,33.7 C98.4,42.24 104.35,47.7 111.14,47.7 C117.86,47.7 124.23,42.03 124.23,33.7 Z" id="Shape"></path>
                <path d="M138.5,33.77 L138.5,33.63 C138.5,23.2 145.85,14.8 155.86,14.8 C166.57,14.8 172.73,23.34 172.73,33.91 C172.73,34.61 172.73,35.03 172.66,35.66 L143.96,35.66 C144.73,43.5 150.26,47.91 156.7,47.91 C161.67,47.91 165.17,45.88 168.11,42.8 L171.47,45.81 C167.83,49.87 163.42,52.6 156.56,52.6 C146.63,52.6 138.5,44.97 138.5,33.77 Z M167.28,31.67 C166.72,25.09 162.94,19.35 155.73,19.35 C149.43,19.35 144.67,24.6 143.97,31.67 L167.28,31.67 Z" id="Shape"></path>
                <path d="M181.48,15.56 L186.87,15.56 L186.87,25.01 C189.53,18.99 194.78,14.65 201.64,14.93 L201.64,20.74 L201.22,20.74 C193.31,20.74 186.87,26.41 186.87,37.33 L186.87,51.75 L181.48,51.75 L181.48,15.56 L181.48,15.56 Z" id="Path"></path>
                <polygon id="Path" points="206.05 15.56 211.79 15.56 221.31 44.61 231.04 15.42 235.52 15.42 245.32 44.61 254.84 15.56 260.44 15.56 247.7 52.03 243.01 52.03 233.28 23.47 223.48 52.03 218.72 52.03"></polygon>
                <path d="M268.7,15.56 L274.09,15.56 L274.09,25.01 C276.75,18.99 282,14.65 288.86,14.93 L288.86,20.74 L288.44,20.74 C280.53,20.74 274.09,26.41 274.09,37.33 L274.09,51.75 L268.7,51.75 L268.7,15.56 L268.7,15.56 Z" id="Path"></path>
                <path d="M296.49,1.7 L302.65,1.7 L302.65,7.65 L296.49,7.65 L296.49,1.7 Z M296.84,15.56 L302.23,15.56 L302.23,51.75 L296.84,51.75 L296.84,15.56 Z" id="Shape"></path>
                <path d="M315.95,42.17 L315.95,20.33 L310.91,20.33 L310.91,15.57 L315.95,15.57 L315.95,4.64 L321.34,4.64 L321.34,15.56 L332.82,15.56 L332.82,20.32 L321.34,20.32 L321.34,41.46 C321.34,45.87 323.79,47.48 327.43,47.48 C329.25,47.48 330.79,47.13 332.68,46.22 L332.68,50.84 C330.79,51.82 328.76,52.380026 326.17,52.380026 C320.36,52.39 315.95,49.52 315.95,42.17 Z" id="Path"></path>
                <path d="M338.35,33.77 L338.35,33.63 C338.35,23.2 345.7,14.8 355.71,14.8 C366.42,14.8 372.58,23.34 372.58,33.91 C372.58,34.61 372.58,35.03 372.51,35.66 L343.81,35.66 C344.58,43.5 350.11,47.91 356.55,47.91 C361.52,47.91 365.02,45.88 367.96,42.8 L371.32,45.81 C367.68,49.87 363.27,52.6 356.41,52.6 C346.47,52.6 338.35,44.97 338.35,33.77 Z M367.13,31.67 C366.57,25.09 362.79,19.35 355.58,19.35 C349.28,19.35 344.52,24.6 343.82,31.67 L367.13,31.67 Z" id="Shape"></path>
            </g>
        </g>
    </g>
</svg>